<svg width="3144" height="784" viewBox="0 0 3144 784" fill="none" xmlns="http://www.w3.org/2000/svg">
<path d="M1060.3 381.156H1207.39V422.219H1060.3V381.156ZM1060.3 438.461H1207.39V479.525H1060.3V438.461Z" fill="#92B0EB"/>
<path d="M1374.65 783.15C1366.44 783.15 1359.82 782.108 1354.79 780.024C1349.89 777.818 1345.84 774.202 1342.66 769.176C1339.47 764.151 1336.65 756.98 1334.2 747.664L1323.35 756.306V781.679H1284.37L1284.55 660.511L1323.53 654.811L1323.35 717.693L1370.6 679.081L1391.75 707.949L1362.15 728.542C1363.62 737.858 1365.7 744.354 1368.4 748.032C1371.22 751.709 1375.32 753.548 1380.72 753.548C1382.92 753.548 1385.56 753.18 1388.62 752.444L1384.95 782.599C1381.27 782.966 1377.84 783.15 1374.65 783.15Z" fill="#92B0EB"/>
<path d="M1438.11 706.11H1526.36V730.748H1438.11V706.11ZM1438.11 740.493H1526.36V765.131H1438.11V740.493Z" fill="#92B0EB"/>
<path d="M1635.42 783.15C1624.39 783.15 1614.46 780.453 1605.63 775.06C1596.93 769.544 1590.07 762.005 1585.04 752.444C1580.14 742.761 1577.69 731.79 1577.69 719.532C1577.69 707.397 1580.14 696.549 1585.04 686.988C1590.07 677.304 1596.93 669.766 1605.63 664.372C1614.46 658.856 1624.39 656.098 1635.42 656.098C1646.33 656.098 1656.14 658.856 1664.84 664.372C1673.66 669.766 1680.53 677.304 1685.43 686.988C1690.46 696.671 1692.97 707.52 1692.97 719.532C1692.97 731.667 1690.52 742.577 1685.62 752.26C1680.71 761.944 1673.85 769.544 1665.02 775.06C1656.32 780.453 1646.45 783.15 1635.42 783.15ZM1635.42 752.628C1639.1 752.628 1642.41 751.219 1645.35 748.399C1648.41 745.457 1650.8 741.474 1652.52 736.448C1654.24 731.422 1655.09 725.784 1655.09 719.532C1655.09 709.849 1653.26 701.942 1649.58 695.813C1645.9 689.684 1641.18 686.62 1635.42 686.62C1629.41 686.62 1624.57 689.684 1620.89 695.813C1617.34 701.82 1615.56 709.726 1615.56 719.532C1615.56 729.216 1617.4 737.183 1621.08 743.435C1624.88 749.564 1629.66 752.628 1635.42 752.628Z" fill="#92B0EB"/>
<path d="M1424.36 2.57414H1461.31V21.3286C1468.42 7.10952 1479.7 0 1495.14 0C1506.91 0 1516.1 4.22894 1522.72 12.6868C1529.47 21.0221 1532.84 32.6057 1532.84 47.4376V93.4044H1494.22V43.5764C1494.22 38.3056 1493.06 34.2605 1490.73 31.4412C1488.52 28.6219 1485.4 27.2123 1481.35 27.2123C1478.41 27.2123 1475.53 28.1929 1472.71 30.1542C1469.89 31.9928 1467.56 34.6895 1465.73 38.2443C1464.01 41.7991 1463.15 45.8441 1463.15 50.3795V93.4044H1424.36V2.57414Z" fill="#92B0EB"/>
<path d="M896.044 207.279H933.002V226.034C940.111 211.815 951.388 204.705 966.833 204.705C978.601 204.705 987.794 208.934 994.413 217.392C1001.15 225.727 1004.53 237.311 1004.53 252.143V298.109H965.914V248.282C965.914 243.011 964.749 238.966 962.42 236.146C960.214 233.327 957.088 231.917 953.043 231.917C950.101 231.917 947.221 232.898 944.401 234.859C941.582 236.698 939.253 239.395 937.414 242.949C935.698 246.504 934.84 250.549 934.84 255.085V298.109H896.044V207.279Z" fill="#92B0EB"/>
<path d="M114.917 582.797C90.6055 580.549 69.7673 573.297 52.402 561.039C35.2411 548.781 22.1662 532.54 13.1771 512.314C4.39237 492.089 0 469.106 0 443.364C0 416.806 4.59667 393.72 13.79 374.108C23.1877 354.291 36.4669 338.764 53.6278 327.528C70.993 316.088 91.4227 309.141 114.917 306.69V345.302C100.412 347.753 88.9711 357.355 80.595 374.108C72.4231 390.86 68.3372 413.946 68.3372 443.364C68.3372 471.966 72.0145 495.153 79.3692 512.927C86.9281 530.701 98.7773 541.018 114.917 543.878V582.797Z" fill="#92B0EB"/>
<path d="M193.031 545.717C179.752 545.717 167.29 542.244 155.645 535.298C144.205 528.147 135.011 518.545 128.065 506.492C121.119 494.234 117.646 480.648 117.646 465.735C117.646 451.025 121.119 437.746 128.065 425.897C135.011 413.843 144.307 404.446 155.952 397.704C167.597 390.962 179.956 387.591 193.031 387.591C203.655 387.591 213.461 390.554 222.45 396.478C231.643 402.403 238.59 411.29 243.288 423.139V387.591H307.642V543.265H243.288V514.766C233.074 535.4 216.321 545.717 193.031 545.717ZM212.95 497.298C221.122 497.298 228.068 494.438 233.789 488.718C239.713 482.793 242.88 475.847 243.288 467.88V465.428C242.88 457.256 239.611 450.31 233.482 444.59C227.558 438.87 220.714 436.01 212.95 436.01C204.37 436.01 197.015 439.074 190.886 445.203C184.962 451.127 181.999 458.278 181.999 466.654C181.999 475.234 185.064 482.487 191.193 488.412C197.322 494.336 204.574 497.298 212.95 497.298Z" fill="#92B0EB"/>
<path d="M447.63 490.25H395.84V442.751H447.63V389.736H497.274V442.751H549.063V490.25H497.274V543.265H447.63V490.25Z" fill="#92B0EB"/>
<path d="M752.276 545.717C728.782 545.717 712.132 535.4 702.326 514.766V543.265H637.359V341.318L702.326 331.818V418.542C707.433 407.714 714.073 399.849 722.245 394.946C730.417 390.043 740.325 387.591 751.97 387.591C765.658 387.591 778.222 391.064 789.663 398.01C801.307 404.752 810.399 414.15 816.936 426.203C823.678 438.257 827.049 451.74 827.049 466.654C827.049 481.363 823.576 494.745 816.63 506.798C809.888 518.852 800.695 528.352 789.05 535.298C777.609 542.244 765.351 545.717 752.276 545.717ZM732.664 497.298C741.04 497.298 748.19 494.234 754.115 488.105C760.04 481.976 763.002 474.826 763.002 466.654C763.002 458.074 759.937 450.821 753.808 444.896C747.884 438.972 740.836 436.01 732.664 436.01C724.288 436.01 717.137 438.972 711.213 444.896C705.288 450.617 702.326 457.461 702.326 465.428V466.654C702.326 475.234 705.288 482.487 711.213 488.412C717.342 494.336 724.492 497.298 732.664 497.298Z" fill="#92B0EB"/>
<path d="M829.57 543.878C844.279 541.427 855.72 531.62 863.892 514.459C872.268 497.298 876.456 473.6 876.456 443.364C876.456 414.763 872.37 391.881 864.198 374.721C856.23 357.56 844.688 347.753 829.57 345.302V306.69C854.494 309.141 875.536 316.496 892.697 328.754C909.858 340.807 922.729 356.64 931.309 376.253C940.094 395.865 944.487 418.236 944.487 443.364C944.487 469.718 939.89 493.008 930.697 513.234C921.707 533.255 908.53 549.292 891.165 561.345C874.004 573.399 853.472 580.549 829.57 582.797V543.878Z" fill="#92B0EB"/>
<path d="M1937.96 603.329C1897.1 603.329 1859.92 593.727 1826.41 574.523C1793.31 554.91 1766.96 528.352 1747.35 494.847C1728.14 460.934 1718.54 423.548 1718.54 382.688C1718.54 341.012 1727.94 303.421 1746.73 269.917C1765.53 236.412 1791.27 210.262 1823.96 191.467C1856.65 172.263 1893.42 162.661 1934.28 162.661C1956.34 162.661 1978 165.317 1999.25 170.629C2020.49 175.94 2038.67 183.499 2053.79 193.305L2037.24 288.303C2007.83 277.271 1981.27 271.755 1957.57 271.755C1924.88 271.755 1899.75 281.357 1882.18 300.561C1864.61 319.356 1855.83 346.528 1855.83 382.075C1855.83 416.806 1865.02 443.977 1883.41 463.59C1902.2 482.794 1928.15 492.396 1961.25 492.396C1973.91 492.396 1985.76 491.17 1996.79 488.718C2007.83 486.267 2021.31 481.772 2037.24 475.235L2054.41 572.071C2018.86 592.909 1980.04 603.329 1937.96 603.329Z" fill="#92B0EB"/>
<path d="M2290.06 509.556C2276.78 509.556 2264.32 506.083 2252.68 499.137C2241.23 491.987 2232.04 482.385 2225.1 470.331C2218.15 458.074 2214.68 444.488 2214.68 429.574C2214.68 414.865 2218.15 401.586 2225.1 389.737C2232.04 377.683 2241.34 368.285 2252.98 361.544C2264.63 354.802 2276.99 351.431 2290.06 351.431C2300.68 351.431 2310.49 354.393 2319.48 360.318C2328.67 366.242 2335.62 375.129 2340.32 386.979V351.431H2404.67V507.105H2340.32V478.606C2330.1 499.239 2313.35 509.556 2290.06 509.556ZM2309.98 461.138C2318.15 461.138 2325.1 458.278 2330.82 452.558C2336.74 446.633 2339.91 439.687 2340.32 431.719V429.268C2339.91 421.096 2336.64 414.15 2330.51 408.43C2324.59 402.709 2317.74 399.849 2309.98 399.849C2301.4 399.849 2294.05 402.914 2287.92 409.043C2281.99 414.967 2279.03 422.118 2279.03 430.494C2279.03 439.074 2282.09 446.327 2288.22 452.251C2294.35 458.176 2301.6 461.138 2309.98 461.138Z" fill="#92B0EB"/>
<path d="M2089.95 562.755H2126.91V581.51C2134.02 567.291 2145.3 560.181 2160.74 560.181C2172.51 560.181 2181.7 564.41 2188.32 572.868C2195.06 581.203 2198.43 592.787 2198.43 607.619V653.585H2159.82V603.758C2159.82 598.487 2158.66 594.442 2156.33 591.622C2154.12 588.803 2151 587.393 2146.95 587.393C2144.01 587.393 2141.13 588.374 2138.31 590.335C2135.49 592.174 2133.16 594.871 2131.32 598.425C2129.61 601.98 2128.75 606.025 2128.75 610.561V653.585H2089.95V562.755Z" fill="#92B0EB"/>
<path d="M3126.9 311.838C3118.69 311.838 3112.07 310.796 3107.04 308.713C3102.14 306.506 3098.09 302.89 3094.91 297.864C3091.72 292.839 3088.9 285.668 3086.45 276.352L3075.6 284.994V310.367H3036.62L3036.81 189.199L3075.79 183.499L3075.6 246.382L3122.86 207.77L3144 236.637L3114.4 257.23C3115.87 266.546 3117.95 273.042 3120.65 276.72C3123.47 280.397 3127.57 282.236 3132.97 282.236C3135.17 282.236 3137.81 281.868 3140.87 281.133L3137.2 311.287C3133.52 311.654 3130.09 311.838 3126.9 311.838Z" fill="#92B0EB"/>
<path d="M2389.66 219.537H2426.61V238.292C2433.72 224.073 2445 216.963 2460.44 216.963C2472.21 216.963 2481.41 221.192 2488.02 229.65C2494.77 237.985 2498.14 249.569 2498.14 264.401V310.367H2459.53V260.539C2459.53 255.269 2458.36 251.224 2456.03 248.404C2453.83 245.585 2450.7 244.175 2446.65 244.175C2443.71 244.175 2440.83 245.156 2438.01 247.117C2435.19 248.956 2432.86 251.653 2431.03 255.207C2429.31 258.762 2428.45 262.807 2428.45 267.343V310.367H2389.66V219.537Z" fill="#92B0EB"/>
<path d="M2549.44 249.875H2598.9V278.558H2549.44V249.875Z" fill="#92B0EB"/>
<path d="M2741.56 311.838C2733.35 311.838 2726.73 310.796 2721.7 308.713C2716.8 306.506 2712.75 302.89 2709.57 297.864C2706.38 292.839 2703.56 285.668 2701.11 276.352L2690.26 284.994V310.367H2651.28L2651.46 189.199L2690.44 183.499L2690.26 246.382L2737.51 207.77L2758.66 236.637L2729.06 257.23C2730.53 266.546 2732.61 273.042 2735.31 276.72C2738.13 280.397 2742.23 282.236 2747.63 282.236C2749.83 282.236 2752.47 281.868 2755.53 281.133L2751.85 311.287C2748.18 311.654 2744.75 311.838 2741.56 311.838Z" fill="#92B0EB"/>
<path d="M2169.57 183.132C2161.35 183.132 2154.74 182.09 2149.71 180.006C2144.81 177.799 2140.76 174.183 2137.57 169.158C2134.39 164.132 2131.57 156.961 2129.12 147.645L2118.27 156.287V181.661H2079.29L2079.47 60.4924L2118.45 54.7925L2118.27 117.675L2165.52 79.0629L2186.67 107.93L2157.06 128.523C2158.54 137.839 2160.62 144.336 2163.32 148.013C2166.14 151.69 2170.24 153.529 2175.63 153.529C2177.84 153.529 2180.48 153.161 2183.54 152.426L2179.86 182.58C2176.19 182.948 2172.75 183.132 2169.57 183.132Z" fill="#92B0EB"/>
<path d="M2958.72 509.556C2935.23 509.556 2918.58 499.239 2908.77 478.606V507.105H2843.81V305.158L2908.77 295.658V382.382C2913.88 371.554 2920.52 363.689 2928.69 358.786C2936.86 353.883 2946.77 351.431 2958.42 351.431C2972.11 351.431 2984.67 354.904 2996.11 361.85C3007.75 368.592 3016.85 377.989 3023.38 390.043C3030.13 402.096 3033.5 415.58 3033.5 430.494C3033.5 445.203 3030.02 458.584 3023.08 470.638C3016.34 482.691 3007.14 492.191 2995.5 499.137C2984.06 506.083 2971.8 509.556 2958.72 509.556ZM2939.11 461.138C2947.49 461.138 2954.64 458.074 2960.56 451.945C2966.49 445.816 2969.45 438.666 2969.45 430.494C2969.45 421.913 2966.38 414.661 2960.26 408.736C2954.33 402.812 2947.28 399.849 2939.11 399.849C2930.74 399.849 2923.58 402.812 2917.66 408.736C2911.74 414.456 2908.77 421.3 2908.77 429.268V430.494C2908.77 439.074 2911.74 446.327 2917.66 452.251C2923.79 458.176 2930.94 461.138 2939.11 461.138Z" fill="#92B0EB"/>
<path d="M1316.49 181.66H1608.98" stroke="#92B0EB" stroke-width="100" stroke-linecap="round"/>
<path d="M1316.49 577.587H1608.98" stroke="#92B0EB" stroke-width="100" stroke-linecap="round"/>
<path d="M1316.49 577.545L1514.41 379.623" stroke="#92B0EB" stroke-width="100" stroke-linecap="round"/>
<path d="M1316.49 181.66L1514.41 379.582" stroke="#92B0EB" stroke-width="100" stroke-linecap="round"/>
</svg>
