<svg width="2725" height="341" viewBox="0 0 2725 341" fill="none" xmlns="http://www.w3.org/2000/svg">
<path d="M107.884 341C85.0604 338.888 65.4974 332.073 49.195 320.553C33.0844 309.034 20.8096 293.771 12.3707 274.765C4.12356 255.758 0 234.16 0 209.969C0 185.011 4.31535 163.316 12.9461 144.886C21.7685 126.263 34.2351 111.672 50.3458 101.113C66.6482 90.3616 85.8275 83.8341 107.884 81.5303V117.816C94.2664 120.12 83.526 129.143 75.6625 144.886C67.9907 160.629 64.1549 182.323 64.1549 209.969C64.1549 236.847 67.6072 258.638 74.5117 275.341C81.6081 292.043 92.7321 301.739 107.884 304.427V341Z" fill="#92B0EB"/>
<path d="M181.218 306.154C168.751 306.154 157.052 302.891 146.12 296.363C135.379 289.644 126.748 280.62 120.227 269.293C113.706 257.774 110.446 245.007 110.446 230.992C110.446 217.169 113.706 204.69 120.227 193.554C126.748 182.227 135.475 173.396 146.407 167.06C157.339 160.725 168.943 157.557 181.218 157.557C191.191 157.557 200.397 160.341 208.836 165.908C217.467 171.476 223.988 179.827 228.399 190.963V157.557H288.814V303.851H228.399V277.068C218.809 296.459 203.082 306.154 181.218 306.154ZM199.918 260.654C207.589 260.654 214.11 257.966 219.481 252.59C225.043 247.023 228.015 240.495 228.399 233.008V230.704C228.015 223.024 224.947 216.497 219.193 211.121C213.631 205.746 207.206 203.058 199.918 203.058C191.862 203.058 184.958 205.938 179.204 211.697C173.642 217.265 170.861 223.984 170.861 231.856C170.861 239.919 173.738 246.735 179.492 252.302C185.245 257.87 192.054 260.654 199.918 260.654Z" fill="#92B0EB"/>
<path d="M420.234 254.03H371.615V209.393H420.234V159.573H466.84V209.393H515.46V254.03H466.84V303.851H420.234V254.03Z" fill="#92B0EB"/>
<path d="M706.236 306.154C684.18 306.154 668.549 296.459 659.343 277.068V303.851H598.353V114.072L659.343 105.145V186.643C664.138 176.468 670.371 169.076 678.043 164.468C685.714 159.861 695.016 157.557 705.949 157.557C718.799 157.557 730.594 160.821 741.335 167.348C752.267 173.684 760.802 182.515 766.939 193.842C773.268 205.17 776.433 217.841 776.433 231.856C776.433 245.679 773.172 258.254 766.651 269.581C760.322 280.908 751.691 289.836 740.759 296.363C730.019 302.891 718.511 306.154 706.236 306.154ZM687.824 260.654C695.688 260.654 702.4 257.774 707.962 252.014C713.524 246.255 716.305 239.535 716.305 231.856C716.305 223.792 713.429 216.977 707.675 211.409C702.113 205.842 695.496 203.058 687.824 203.058C679.961 203.058 673.248 205.842 667.686 211.409C662.124 216.785 659.343 223.216 659.343 230.704V231.856C659.343 239.919 662.124 246.735 667.686 252.302C673.44 257.87 680.152 260.654 687.824 260.654Z" fill="#92B0EB"/>
<path d="M778.799 304.427C792.609 302.123 803.349 292.907 811.021 276.781C818.884 260.654 822.816 238.383 822.816 209.969C822.816 183.091 818.98 161.589 811.308 145.462C803.828 129.335 792.992 120.12 778.799 117.816V81.5303C802.198 83.8341 821.953 90.7456 838.064 102.265C854.174 113.592 866.257 128.471 874.313 146.902C882.56 165.332 886.683 186.355 886.683 209.969C886.683 234.735 882.368 256.622 873.737 275.629C865.298 294.443 852.928 309.514 836.625 320.841C820.514 332.169 801.239 338.888 778.799 341V304.427Z" fill="#92B0EB"/>
<path d="M963.357 185.491H1101.45V224.08H963.357V185.491ZM963.357 239.343H1101.45V277.932H963.357V239.343Z" fill="#92B0EB"/>
<path d="M1250.22 306.154C1237.76 306.154 1226.06 302.891 1215.12 296.363C1204.38 289.644 1195.75 280.62 1189.23 269.293C1182.71 257.774 1179.45 245.007 1179.45 230.992C1179.45 217.169 1182.71 204.69 1189.23 193.554C1195.75 182.227 1204.48 173.396 1215.41 167.06C1226.34 160.725 1237.95 157.557 1250.22 157.557C1260.2 157.557 1269.4 160.341 1277.84 165.908C1286.47 171.476 1292.99 179.827 1297.4 190.963V157.557H1357.82V303.851H1297.4V277.068C1287.81 296.459 1272.09 306.154 1250.22 306.154ZM1268.92 260.654C1276.59 260.654 1283.11 257.966 1288.48 252.59C1294.05 247.023 1297.02 240.495 1297.4 233.008V230.704C1297.02 223.024 1293.95 216.497 1288.2 211.121C1282.64 205.746 1276.21 203.058 1268.92 203.058C1260.87 203.058 1253.96 205.938 1248.21 211.697C1242.65 217.265 1239.87 223.984 1239.87 231.856C1239.87 239.919 1242.74 246.735 1248.5 252.302C1254.25 257.87 1261.06 260.654 1268.92 260.654Z" fill="#92B0EB"/>
<path d="M1489.24 254.03H1440.62V209.393H1489.24V159.573H1535.84V209.393H1584.46V254.03H1535.84V303.851H1489.24V254.03Z" fill="#92B0EB"/>
<path d="M1663.33 263.245C1685.96 242.895 1703.03 225.616 1714.54 211.409C1726.05 197.202 1731.8 185.395 1731.8 175.988C1731.8 169.844 1729.88 165.14 1726.05 161.877C1722.4 158.613 1717.42 156.981 1711.09 156.981C1699.19 156.981 1686.82 160.725 1673.97 168.212L1659.88 125.303C1670.43 119.928 1680.78 115.896 1690.95 113.208C1701.3 110.52 1712.14 109.176 1723.46 109.176C1736.88 109.176 1748.58 111.864 1758.55 117.24C1768.72 122.423 1776.49 129.623 1781.86 138.838C1787.23 147.862 1789.91 158.229 1789.91 169.94C1789.91 187.411 1784.06 203.73 1772.36 218.897C1760.66 233.872 1743.02 248.175 1719.43 261.806H1788.76V303.851H1663.33V263.245Z" fill="#92B0EB"/>
<path d="M1879.26 306.154C1866.8 306.154 1855.1 302.891 1844.17 296.363C1833.42 289.644 1824.79 280.62 1818.27 269.293C1811.75 257.774 1808.49 245.007 1808.49 230.992C1808.49 217.169 1811.75 204.69 1818.27 193.554C1824.79 182.227 1833.52 173.396 1844.45 167.06C1855.38 160.725 1866.99 157.557 1879.26 157.557C1889.24 157.557 1898.44 160.341 1906.88 165.908C1915.51 171.476 1922.03 179.827 1926.44 190.963V157.557H1986.86V303.851H1926.44V277.068C1916.85 296.459 1901.13 306.154 1879.26 306.154ZM1897.96 260.654C1905.63 260.654 1912.16 257.966 1917.53 252.59C1923.09 247.023 1926.06 240.495 1926.44 233.008V230.704C1926.06 223.024 1922.99 216.497 1917.24 211.121C1911.68 205.746 1905.25 203.058 1897.96 203.058C1889.91 203.058 1883 205.938 1877.25 211.697C1871.69 217.265 1868.91 223.984 1868.91 231.856C1868.91 239.919 1871.78 246.735 1877.54 252.302C1883.29 257.87 1890.1 260.654 1897.96 260.654Z" fill="#92B0EB"/>
<path d="M2124.46 306.154C2102.4 306.154 2086.77 296.459 2077.56 277.068V303.851H2016.57V114.072L2077.56 105.145V186.643C2082.36 176.468 2088.59 169.076 2096.26 164.468C2103.94 159.861 2113.24 157.557 2124.17 157.557C2137.02 157.557 2148.82 160.821 2159.56 167.348C2170.49 173.684 2179.02 182.515 2185.16 193.842C2191.49 205.17 2194.65 217.841 2194.65 231.856C2194.65 245.679 2191.39 258.254 2184.87 269.581C2178.54 280.908 2169.91 289.836 2158.98 296.363C2148.24 302.891 2136.73 306.154 2124.46 306.154ZM2106.05 260.654C2113.91 260.654 2120.62 257.774 2126.18 252.014C2131.75 246.255 2134.53 239.535 2134.53 231.856C2134.53 223.792 2131.65 216.977 2125.9 211.409C2120.33 205.842 2113.72 203.058 2106.05 203.058C2098.18 203.058 2091.47 205.842 2085.91 211.409C2080.35 216.785 2077.56 223.216 2077.56 230.704V231.856C2077.56 239.919 2080.35 246.735 2085.91 252.302C2091.66 257.87 2098.37 260.654 2106.05 260.654Z" fill="#92B0EB"/>
<path d="M2318.88 254.03H2270.26V209.393H2318.88V159.573H2365.48V209.393H2414.1V254.03H2365.48V303.851H2318.88V254.03Z" fill="#92B0EB"/>
<path d="M2604.88 306.154C2582.82 306.154 2567.19 296.459 2557.98 277.068V303.851H2496.99V114.072L2557.98 105.145V186.643C2562.78 176.468 2569.01 169.076 2576.68 164.468C2584.36 159.861 2593.66 157.557 2604.59 157.557C2617.44 157.557 2629.24 160.821 2639.98 167.348C2650.91 173.684 2659.44 182.515 2665.58 193.842C2671.91 205.17 2675.07 217.841 2675.07 231.856C2675.07 245.679 2671.81 258.254 2665.29 269.581C2658.96 280.908 2650.33 289.836 2639.4 296.363C2628.66 302.891 2617.15 306.154 2604.88 306.154ZM2586.47 260.654C2594.33 260.654 2601.04 257.774 2606.6 252.014C2612.17 246.255 2614.95 239.535 2614.95 231.856C2614.95 223.792 2612.07 216.977 2606.32 211.409C2600.75 205.842 2594.14 203.058 2586.47 203.058C2578.6 203.058 2571.89 205.842 2566.33 211.409C2560.77 216.785 2557.98 223.216 2557.98 230.704V231.856C2557.98 239.919 2560.77 246.735 2566.33 252.302C2572.08 257.87 2578.79 260.654 2586.47 260.654Z" fill="#92B0EB"/>
<path d="M907.438 102.713C922.526 89.1457 933.906 77.6265 941.578 68.1552C949.249 58.6839 953.085 50.8124 953.085 44.5409C953.085 40.4452 951.807 37.3094 949.249 35.1335C946.82 32.9577 943.495 31.8698 939.276 31.8698C931.349 31.8698 923.101 34.3656 914.535 39.3572L905.137 10.7513C912.169 7.16751 919.074 4.47969 925.85 2.68781C932.755 0.895937 939.979 0 947.523 0C956.473 0 964.273 1.79188 970.922 5.37563C977.699 8.83138 982.877 13.631 986.457 19.7746C990.037 25.7902 991.827 32.7017 991.827 40.5092C991.827 52.1563 987.928 63.0356 980.128 73.1469C972.328 83.1302 960.565 92.6655 944.838 101.753H991.06V129.783H907.438V102.713Z" fill="#92B0EB"/>
<path d="M1369.66 102.713C1384.75 89.1457 1396.13 77.6265 1403.8 68.1552C1411.47 58.6839 1415.31 50.8124 1415.31 44.5409C1415.31 40.4452 1414.03 37.3094 1411.47 35.1335C1409.04 32.9577 1405.72 31.8698 1401.5 31.8698C1393.57 31.8698 1385.32 34.3656 1376.76 39.3572L1367.36 10.7513C1374.39 7.16751 1381.3 4.47969 1388.07 2.68781C1394.98 0.895937 1402.2 0 1409.75 0C1418.7 0 1426.5 1.79188 1433.14 5.37563C1439.92 8.83138 1445.1 13.631 1448.68 19.7746C1452.26 25.7902 1454.05 32.7017 1454.05 40.5092C1454.05 52.1563 1450.15 63.0356 1442.35 73.1469C1434.55 83.1302 1422.79 92.6655 1407.06 101.753H1453.28V129.783H1369.66V102.713Z" fill="#92B0EB"/>
<path d="M2640.61 102.713C2655.7 89.1457 2667.08 77.6265 2674.75 68.1552C2682.42 58.6839 2686.26 50.8124 2686.26 44.5409C2686.26 40.4452 2684.98 37.3094 2682.42 35.1335C2679.99 32.9577 2676.67 31.8698 2672.45 31.8698C2664.52 31.8698 2656.27 34.3656 2647.71 39.3572L2638.31 10.7513C2645.34 7.16751 2652.25 4.47969 2659.02 2.68781C2665.93 0.895937 2673.15 0 2680.7 0C2689.65 0 2697.45 1.79188 2704.09 5.37563C2710.87 8.83138 2716.05 13.631 2719.63 19.7746C2723.21 25.7902 2725 32.7017 2725 40.5092C2725 52.1563 2721.1 63.0356 2713.3 73.1469C2705.5 83.1302 2693.74 92.6655 2678.01 101.753H2724.23V129.783H2640.61V102.713Z" fill="#92B0EB"/>
</svg>
