<svg width="566" height="838" viewBox="0 0 566 838" fill="none" xmlns="http://www.w3.org/2000/svg">
<path d="M172.077 757.16C171.648 755.336 171.429 753.49 171.429 751.626C171.429 715.207 255.063 685.683 358.23 685.683C456.104 685.683 536.398 712.255 544.38 746.078" stroke="#92B0EB" stroke-width="40" stroke-miterlimit="10" stroke-linecap="round" stroke-linejoin="round" stroke-dasharray="100 100"/>
<path d="M544.38 746.079C544.811 747.908 545.031 749.758 545.031 751.627C545.031 788.046 461.398 817.57 358.23 817.57C260.342 817.57 180.039 790.99 172.077 757.16" stroke="#92B0EB" stroke-width="40" stroke-miterlimit="10" stroke-linecap="round" stroke-linejoin="round"/>
<path d="M206.801 151.886C309.969 151.886 393.603 122.363 393.603 85.9432C393.603 49.5238 309.969 20 206.801 20C103.634 20 20 49.5238 20 85.9432C20 122.363 103.634 151.886 206.801 151.886Z" stroke="#92B0EB" stroke-width="40" stroke-miterlimit="10" stroke-linecap="round" stroke-linejoin="round"/>
<path d="M20.2695 89.4971L171.95 756.54" stroke="#92B0EB" stroke-width="40" stroke-miterlimit="10" stroke-linecap="round" stroke-linejoin="round"/>
<path d="M393.028 80.7368L544.325 745.856" stroke="#92B0EB" stroke-width="40" stroke-miterlimit="10" stroke-linecap="round" stroke-linejoin="round"/>
</svg>
