<svg width="659" height="659" viewBox="0 0 659 659" fill="none" xmlns="http://www.w3.org/2000/svg">
<path d="M639 329.5C639 326.254 638.599 323.041 637.813 319.866" stroke="#92B0EB" stroke-width="40" stroke-linecap="round" stroke-linejoin="round"/>
<path d="M632.61 307.305C603.559 257.606 478.89 220.243 329.5 220.243C174.087 220.243 45.4273 260.68 23.3472 313.376" stroke="#92B0EB" stroke-width="40" stroke-linecap="round" stroke-linejoin="round" stroke-dasharray="100 100"/>
<path d="M21.1868 319.866C20.4011 323.041 20 326.254 20 329.5" stroke="#92B0EB" stroke-width="40" stroke-linecap="round" stroke-linejoin="round"/>
<path d="M639 329.5C639 389.841 500.432 438.757 329.5 438.757C158.568 438.757 20 389.841 20 329.5" stroke="#92B0EB" stroke-width="40" stroke-miterlimit="10" stroke-linecap="round" stroke-linejoin="round"/>
<path d="M329.5 639C500.432 639 639 500.432 639 329.5C639 158.568 500.432 20 329.5 20C158.568 20 20 158.568 20 329.5C20 500.432 158.568 639 329.5 639Z" stroke="#92B0EB" stroke-width="40" stroke-miterlimit="10" stroke-linecap="round" stroke-linejoin="round"/>
</svg>
