<svg width="1124" height="593" viewBox="0 0 1124 593" fill="none" xmlns="http://www.w3.org/2000/svg">
<path d="M204.802 1.27235C207.346 0.424115 210.737 0 214.977 0C239.143 0 254.83 16.1166 262.037 48.3497C266.701 67.8593 266.277 82.7035 260.765 92.8824C255.254 103.061 245.502 108.575 231.512 109.423C218.793 109.423 209.041 103.91 202.258 92.8824C199.29 87.7929 197.806 82.0673 197.806 75.7055C197.806 69.3437 199.29 63.6181 202.258 58.5286C206.498 50.0462 214.129 44.7447 225.152 42.6241C227.696 42.2 228.968 41.3517 228.968 40.0794L226.424 36.2623L225.788 35.6261C221.124 28.8402 214.977 27.7799 207.346 32.4452C205.65 33.2934 204.166 34.5658 202.894 36.2623C194.415 46.0171 187.631 72.1005 182.544 114.513C180.424 131.053 178.092 153.32 175.548 181.312C167.493 263.167 153.714 356.897 134.212 462.503C131.244 478.196 128.488 492.828 125.944 506.4C113.649 553.901 93.5109 582.105 65.5292 591.012C56.6259 593.133 48.5705 593.557 41.3631 592.284C21.8607 587.619 9.14175 571.714 3.20624 544.571C-1.45738 525.061 -1.03342 510.217 4.47814 500.038C9.98969 489.859 19.7409 484.346 33.7318 483.497C46.4507 483.497 56.2019 489.011 62.9854 500.038C65.9531 505.128 67.437 510.853 67.437 517.215C67.437 523.577 65.9531 529.302 62.9854 534.392C58.7457 542.874 51.1143 548.176 40.0912 550.296C37.5474 550.72 36.2755 551.569 36.2755 552.841C37.9714 557.082 40.7272 560.051 44.5429 561.748C47.9346 563.868 51.9623 563.656 56.6259 561.111C62.1374 558.567 67.225 551.993 71.8886 541.39C77.4002 525.273 83.5477 481.801 90.3311 410.973C98.3865 326.997 111.953 234.539 131.032 133.598C138.239 92.4583 145.659 63.6181 153.29 47.0774C153.714 46.2291 154.138 45.3809 154.562 44.5326C160.921 33.0814 166.645 24.811 171.732 19.7216C180.212 9.96683 191.235 3.81709 204.802 1.27235Z" fill="#92B0EB"/>
<path d="M213.451 335.49H195.422V299.991H213.451V287.967C213.451 266.782 218.506 250.751 228.618 239.872C238.92 228.993 253.229 223.554 271.545 223.554C286.235 223.554 299.876 227.276 312.468 234.719L310.465 273.367C299.399 268.977 290.146 266.782 282.705 266.782C276.982 266.782 272.594 268.214 269.541 271.077C266.489 273.749 264.962 277.661 264.962 282.814C264.962 287.776 266.584 293.502 269.828 299.991H309.892V335.49H273.834V443.418H213.451V335.49Z" fill="#92B0EB"/>
<path d="M425.671 480.348C402.967 478.249 383.507 471.474 367.291 460.022C351.265 448.571 339.055 433.398 330.66 414.504C322.456 395.609 318.355 374.138 318.355 350.09C318.355 325.279 322.647 303.713 331.233 285.391C340.009 266.878 352.41 252.373 368.435 241.876C384.652 231.188 403.731 224.699 425.671 222.409V258.48C412.125 260.771 401.441 269.741 393.619 285.391C385.988 301.041 382.172 322.607 382.172 350.09C382.172 376.81 385.606 398.472 392.474 415.076C399.533 431.68 410.599 441.319 425.671 443.991V480.348Z" fill="#92B0EB"/>
<path d="M477.712 368.985L437.075 299.991H497.459L513.485 333.772L530.083 299.991H588.749L548.684 368.985L591.611 443.418H532.945L513.485 406.774L494.597 443.418H434.214L477.712 368.985Z" fill="#92B0EB"/>
<path d="M600.073 443.991C613.81 441.7 624.494 432.539 632.125 416.508C639.947 400.476 643.858 378.337 643.858 350.09C643.858 323.371 640.042 301.995 632.411 285.963C624.97 269.932 614.191 260.771 600.073 258.48V222.409C623.349 224.699 643 231.57 659.026 243.021C675.051 254.281 687.071 269.073 695.084 287.395C703.287 305.717 707.389 326.615 707.389 350.09C707.389 374.71 703.097 396.468 694.511 415.362C686.117 434.066 673.811 449.048 657.595 460.309C641.569 471.569 622.395 478.249 600.073 480.348V443.991Z" fill="#92B0EB"/>
<path d="M843.471 445.708C830.497 445.708 818.669 442.273 807.985 435.402C797.492 428.531 789.193 419.466 783.088 408.205C776.982 396.754 773.93 384.635 773.93 371.848C773.93 358.297 777.078 345.891 783.374 334.631C789.86 323.18 798.446 314.21 809.13 307.721C820.004 301.232 831.547 297.987 843.757 297.987C854.822 297.987 864.171 300.277 871.802 304.858C879.625 309.438 885.92 316.786 890.69 326.902V254.759L951.073 245.884V443.418H890.69V416.794C881.723 436.07 865.983 445.708 843.471 445.708ZM862.358 400.476C870.371 400.476 877.049 397.613 882.391 391.887C887.924 386.162 890.69 379.482 890.69 371.848V370.703C890.69 363.259 887.828 356.866 882.105 351.522C876.381 345.987 869.799 343.22 862.358 343.22C854.346 343.22 847.573 346.082 842.04 351.808C836.698 357.343 834.027 364.023 834.027 371.848C834.027 379.864 836.793 386.639 842.326 392.174C848.05 397.708 854.727 400.476 862.358 400.476Z" fill="#92B0EB"/>
<path d="M1010.1 368.985L969.465 299.991H1029.85L1045.87 333.772L1062.47 299.991H1121.14L1081.07 368.985L1124 443.418H1065.33L1045.87 406.774L1026.99 443.418H966.603L1010.1 368.985Z" fill="#92B0EB"/>
</svg>
