<svg width="57" height="64" viewBox="0 0 57 64" fill="none" xmlns="http://www.w3.org/2000/svg">
<path d="M14.3809 52.2003C14.3809 54.6144 16.123 56.5705 18.2731 56.5705H52.8792C55.0283 56.5705 56.7716 54.6144 56.7716 52.2003V48.707H14.3809V52.2003Z" fill="#7F4821"/>
<path d="M53.4318 7.4292H15.9302H14.6104C14.0315 7.4292 13.2469 7.4292 12.1407 7.4292C5.4356 7.4292 0 13.5323 0 21.0609C0 28.5894 5.44673 34.2661 12.1408 34.694C13.436 34.7767 14.5668 34.6262 15.557 34.2949C16.6958 38.2788 18.8067 41.7732 21.6006 44.3958H50.0099C54.28 40.3866 57 34.3663 57 27.6271V11.4357C57 9.22232 55.402 7.4292 53.4318 7.4292ZM14.6105 26.0987C13.8739 26.5555 13.0414 26.8377 12.1408 26.8377C9.29991 26.8377 6.99675 24.2517 6.99675 21.0608C6.99675 17.8713 9.29991 15.2852 12.1408 15.2852C13.0414 15.2852 13.8739 15.5674 14.6105 16.0229V26.0987Z" fill="#C3956C"/>
</svg>
