<svg width="58" height="65" viewBox="0 0 58 65" fill="none" xmlns="http://www.w3.org/2000/svg">
<path d="M57.5434 0H0V13.2628H4.0994V4.14942H53.444V10.9658L57.5434 7.68511V0Z" fill="#FE25A7"/>
<path d="M0 51.6345L4.06764 48.4521V51.3331C4.06764 53.5587 5.86352 55.363 8.07886 55.363H28.6647V59.4688H8.07886C4.2045 59.4688 0.965612 56.7354 0.16862 53.0835L0.166704 53.0747C0.110274 52.8162 0 52.3112 0 51.6345Z" fill="#FE25A7"/>
<path d="M28.6641 64.3887V59.6391C30.0251 59.0264 31.2502 58.5135 32.6484 57.9279C33.4408 57.596 34.2894 57.2406 35.2492 56.8309C38.5615 55.4169 41.8459 55.3809 43.969 55.3809H49.1817C51.4104 55.3809 53.2171 53.5543 53.2171 51.3012V47.0615H57.3288V51.3012C57.3288 55.85 53.6813 59.5376 49.1817 59.5376H42.7981C40.7391 59.5845 39.3545 59.7057 37.3019 60.576C35.2492 61.4464 32.6555 62.5885 28.6641 64.3887Z" fill="#FE25A7"/>
<path fill-rule="evenodd" clip-rule="evenodd" d="M15.0132 9.94678L21.4838 9.94688C26.8869 9.94688 30.1622 13.7325 30.1621 18.6029C30.1621 22.906 27.3321 25.4257 23.1632 27.2796C19.4272 28.9411 19.4024 28.9514 18.3308 29.4015L18.3303 29.4017L18.0484 29.5201V25.66C17.4978 25.9016 16.8095 26.1687 16.0227 26.4015C15.7108 26.4938 15.3772 26.5671 15.0132 26.6229C13.4404 26.8635 11.7547 26.5267 10.1177 25.4052C7.75082 23.5433 6.73828 20.9909 6.73828 18.6569C6.73828 13.6127 10.3507 9.94678 15.0132 9.94678ZM18.0515 23.9714C19.2661 23.4281 21.2086 22.5603 22.3885 22.037C22.732 21.8846 23.045 21.7085 23.3276 21.5439C23.6561 21.3526 23.9437 21.1519 24.1905 20.9387C24.9478 20.2848 25.3223 19.5142 25.3223 18.544C25.3223 17.5058 24.7706 15.293 22.2348 15.293L14.6513 15.2929C13.1949 15.2929 12.6382 15.8162 12.1094 16.6399C11.0757 18.25 11.6198 20.1239 12.8923 21.0944C13.2854 21.3942 13.7084 21.5626 14.1422 21.6118C15.1973 21.7313 16.8624 21.1112 18.0515 20.582V23.9714Z" fill="#FE25A7"/>
<path d="M33.4785 10.6959H37.5429L37.6499 19.0386L48.6665 10.1611V26.8466H44.4952V18.9317L33.4785 27.8092V21.0708V10.6959Z" fill="#FE25A7"/>
<path d="M11.4453 32.8361H15.5097L15.6167 41.1788L26.6333 32.3013V49.7354H22.462V41.0718L11.4453 49.9493V43.211V32.8361Z" fill="#FE25A7"/>
<path d="M39.1465 31.9805H43.5318H48.7728V36.7936H43.5318V49.6285H39.1465V36.7936H33.5312V31.9805H39.1465Z" fill="#FE25A7"/>
</svg>
