<svg width="44" height="44" viewBox="0 0 44 44" fill="none" xmlns="http://www.w3.org/2000/svg">
<path d="M22.0003 18.3335C23.0129 18.3335 23.8337 19.1543 23.8337 20.1668V29.3335C23.8337 30.346 23.0129 31.1668 22.0003 31.1668C20.9878 31.1668 20.167 30.346 20.167 29.3335V20.1668C20.167 19.1543 20.9878 18.3335 22.0003 18.3335Z" fill="#0F1729"/>
<path d="M22.0003 12.8335C23.0129 12.8335 23.8337 13.6543 23.8337 14.6668C23.8337 15.6793 23.0129 16.5002 22.0003 16.5002C20.9878 16.5002 20.167 15.6793 20.167 14.6668C20.167 13.6543 20.9878 12.8335 22.0003 12.8335Z" fill="#0F1729"/>
<path fill-rule="evenodd" clip-rule="evenodd" d="M3.66699 21.9998C3.66699 11.8746 11.8751 3.6665 22.0003 3.6665C32.1255 3.6665 40.3337 11.8746 40.3337 21.9998C40.3337 32.125 32.1255 40.3332 22.0003 40.3332C11.8751 40.3332 3.66699 32.125 3.66699 21.9998ZM22.0003 7.33317C13.9001 7.33317 7.33366 13.8997 7.33366 21.9998C7.33366 30.1001 13.9001 36.6665 22.0003 36.6665C30.1005 36.6665 36.667 30.1001 36.667 21.9998C36.667 13.8997 30.1005 7.33317 22.0003 7.33317Z" fill="#0F1729"/>
</svg>
