<svg width="44" height="44" viewBox="0 0 44 44" fill="none" xmlns="http://www.w3.org/2000/svg">
<path fill-rule="evenodd" clip-rule="evenodd" d="M22.0003 14.6665C17.9502 14.6665 14.667 17.9497 14.667 21.9998C14.667 26.05 17.9502 29.3331 22.0003 29.3331C26.0504 29.3331 29.3337 26.05 29.3337 21.9998C29.3337 17.9497 26.0504 14.6665 22.0003 14.6665ZM18.3337 21.9998C18.3337 19.9749 19.9752 18.3331 22.0003 18.3331C24.0254 18.3331 25.667 19.9749 25.667 21.9998C25.667 24.0249 24.0254 25.6665 22.0003 25.6665C19.9752 25.6665 18.3337 24.0249 18.3337 21.9998Z" fill="#0F1729"/>
<path fill-rule="evenodd" clip-rule="evenodd" d="M22.0003 14.6665C17.9502 14.6665 14.667 17.9497 14.667 21.9998C14.667 26.05 17.9502 29.3331 22.0003 29.3331C26.0504 29.3331 29.3337 26.05 29.3337 21.9998C29.3337 17.9497 26.0504 14.6665 22.0003 14.6665ZM18.3337 21.9998C18.3337 19.9749 19.9752 18.3331 22.0003 18.3331C24.0254 18.3331 25.667 19.9749 25.667 21.9998C25.667 24.0249 24.0254 25.6665 22.0003 25.6665C19.9752 25.6665 18.3337 24.0249 18.3337 21.9998Z" fill="#0F1729"/>
<path fill-rule="evenodd" clip-rule="evenodd" d="M19.7399 1.86483C20.1528 1.83318 20.6164 1.83337 20.9945 1.83352H23.0053C23.3833 1.83337 23.8469 1.83318 24.2598 1.86483C24.7478 1.90223 25.4242 1.99732 26.1494 2.32734C27.0663 2.74446 27.8509 3.40532 28.4178 4.23786C28.8664 4.89654 29.0751 5.54691 29.195 6.02138C29.2963 6.42295 29.375 6.87973 29.439 7.25228L29.6986 8.75681L29.7037 8.75961C29.7675 8.79488 29.8309 8.83058 29.8942 8.86671L29.899 8.86935L31.6166 8.24769C31.9651 8.12143 32.3936 7.96616 32.7863 7.85679C33.2512 7.7273 33.9081 7.58813 34.6895 7.64564C35.6791 7.71846 36.6304 8.05761 37.4429 8.62715C38.0844 9.07691 38.5052 9.60016 38.7833 9.99458C39.0185 10.3278 39.2521 10.7191 39.4422 11.0374L40.3622 12.5769C40.5635 12.9132 40.8088 13.3232 40.9981 13.7048C41.2211 14.154 41.4933 14.8039 41.5756 15.6214C41.679 16.6509 41.4902 17.6887 41.0304 18.6156C40.6652 19.3517 40.1812 19.8638 39.8142 20.2057C39.5025 20.4959 39.1283 20.7933 38.8216 21.0369L37.5832 22.0002L38.8216 22.9634C39.1283 23.2072 39.5025 23.5044 39.8142 23.7948C40.1812 24.1365 40.6652 24.6486 41.0302 25.3847C41.49 26.3116 41.679 27.3495 41.5755 28.3791C41.4933 29.1965 41.2209 29.8463 40.998 30.2956C40.8086 30.6771 40.5633 31.0873 40.3622 31.4235L39.4418 32.9633C39.2519 33.2816 39.0183 33.6726 38.7833 34.0057C38.505 34.4003 38.0844 34.9235 37.4428 35.3732C36.6304 35.9428 35.6789 36.282 34.6895 36.3548C33.9081 36.4124 33.2512 36.273 32.7863 36.1436C32.3934 36.0341 31.9649 35.879 31.6164 35.7527L29.8988 35.131L29.8942 35.1338C29.8309 35.1699 29.7675 35.2055 29.7037 35.2409L29.6986 35.2436L29.439 36.748C29.375 37.1206 29.2963 37.5774 29.195 37.9789C29.0751 38.4534 28.8664 39.1039 28.4178 39.7626C27.8509 40.5951 27.0663 41.256 26.1494 41.6731C25.4242 42.0031 24.7478 42.0983 24.2598 42.1357C23.8468 42.1672 23.3833 42.167 23.0053 42.1668H20.9945C20.6164 42.167 20.1528 42.1672 19.7399 42.1357C19.2519 42.0983 18.5756 42.0031 17.8502 41.6731C16.9334 41.256 16.1488 40.5951 15.5818 39.7626C15.1333 39.1039 14.9246 38.4534 14.8048 37.9789C14.7034 37.5774 14.6248 37.1206 14.5607 36.748L14.3011 35.2436L14.296 35.2409C14.2322 35.2055 14.1687 35.1699 14.1055 35.1336L14.1008 35.131L12.3833 35.7527C12.0348 35.8789 11.6063 36.0341 11.2135 36.1436C10.7485 36.273 10.0917 36.4122 9.31028 36.3548C8.32074 36.282 7.36933 35.9428 6.55685 35.3732C5.91529 34.9235 5.49462 34.4003 5.21641 34.0057C4.98136 33.6726 4.74772 33.2814 4.55771 32.9631L3.63752 31.4235C3.43639 31.0873 3.19109 30.6771 3.00171 30.2956C2.77874 29.8463 2.50638 29.1965 2.42417 28.3791C2.32064 27.3495 2.50964 26.3116 2.96942 25.3847C3.33455 24.6486 3.81849 24.1365 4.18551 23.7948C4.49725 23.5044 4.87134 23.2072 5.17809 22.9634L6.377 22.0101V21.9904L5.17802 21.0369C4.87125 20.7933 4.49717 20.4959 4.18543 20.2057C3.81842 19.8638 3.33447 19.3517 2.96935 18.6156C2.50957 17.6888 2.32057 16.6509 2.42408 15.6214C2.50628 14.8039 2.77866 14.1541 3.00161 13.7048C3.191 13.3233 3.43632 12.9132 3.63745 12.5769L4.55762 11.0373C4.74763 10.7191 4.98128 10.3278 5.21632 9.9946C5.49454 9.60018 5.9152 9.07692 6.55678 8.62719C7.36924 8.05763 8.32066 7.71848 9.31021 7.64566C10.0916 7.58815 10.7484 7.72732 11.2134 7.8568C11.6062 7.9662 12.0347 8.12146 12.3831 8.24773L14.1008 8.86937L14.1054 8.86671C14.1687 8.8306 14.2322 8.79488 14.296 8.75961L14.3011 8.75681L14.5607 7.2523C14.6248 6.87975 14.7034 6.42295 14.8048 6.02138C14.9246 5.54691 15.1333 4.89654 15.5818 4.23786C16.1488 3.40532 16.9334 2.74446 17.8502 2.32734C18.5756 1.99732 19.2519 1.90223 19.7399 1.86483ZM25.8385 7.95005C25.6867 7.07012 25.6108 6.63018 25.3871 6.30164C25.1981 6.02413 24.9367 5.80384 24.6311 5.6648C24.2692 5.5002 23.8227 5.5002 22.9299 5.5002H21.0698C20.177 5.5002 19.7304 5.5002 19.3687 5.6648C19.063 5.80384 18.8016 6.02413 18.6126 6.30164C18.3889 6.63018 18.3129 7.07012 18.1611 7.95005L17.8751 9.608C17.773 10.1996 17.722 10.4954 17.6139 10.7228C17.5077 10.946 17.4209 11.0681 17.2449 11.2415C17.0655 11.4182 16.7337 11.6017 16.07 11.9686C16.0211 11.9956 15.9724 12.023 15.9239 12.0507C15.2891 12.4133 14.9717 12.5945 14.7359 12.6559C14.5044 12.7162 14.3602 12.7286 14.1218 12.7088C13.8791 12.6886 13.6072 12.5901 13.0633 12.3933L11.2051 11.7208C10.3815 11.4227 9.96969 11.2737 9.5793 11.3024C9.24947 11.3267 8.93232 11.4398 8.6615 11.6296C8.34098 11.8543 8.1163 12.2302 7.66697 12.9821L6.82479 14.3912C6.35042 15.1849 6.11322 15.5818 6.07236 15.9883C6.03785 16.3314 6.10085 16.6774 6.25411 16.9863C6.43563 17.3523 6.79749 17.6401 7.52122 18.2156L8.85019 19.2725C9.31186 19.6396 9.54269 19.8233 9.6874 20.02C9.84383 20.2328 9.91055 20.3711 9.97968 20.6259C10.0437 20.8617 10.0437 21.2412 10.0437 22.0002C10.0437 22.7592 10.0437 23.1387 9.97968 23.3746C9.91053 23.6294 9.84383 23.7677 9.68743 23.9803C9.54269 24.1772 9.31186 24.3608 8.85015 24.728L7.52131 25.7847C6.79759 26.3604 6.43572 26.648 6.25419 27.0141C6.10092 27.3231 6.03793 27.669 6.07243 28.0122C6.11331 28.4187 6.35049 28.8154 6.82487 29.6092L7.66704 31.0183C8.11639 31.7702 8.34105 32.1462 8.66157 32.3708C8.93241 32.5607 9.24954 32.6736 9.57939 32.698C9.96977 32.7266 10.3816 32.5776 11.2052 32.2797L13.0633 31.6072C13.6072 31.4103 13.8791 31.3118 14.1218 31.2917C14.3603 31.2719 14.5044 31.2842 14.7359 31.3445C14.9717 31.4059 15.2891 31.5872 15.9239 31.9497C15.9724 31.9773 16.0211 32.0048 16.07 32.0318C16.7337 32.3986 17.0655 32.5822 17.2448 32.7589C17.4209 32.9323 17.5077 33.0544 17.6139 33.2777C17.722 33.5051 17.773 33.8008 17.8751 34.3924L18.1611 36.0503C18.3129 36.9303 18.3889 37.3703 18.6126 37.6988C18.8016 37.9762 19.063 38.1966 19.3687 38.3355C19.7304 38.5002 20.177 38.5002 21.0698 38.5002H22.9299C23.8227 38.5002 24.2692 38.5002 24.6311 38.3355C24.9367 38.1966 25.1981 37.9762 25.3871 37.6988C25.6108 37.3703 25.6867 36.9303 25.8385 36.0503L26.1247 34.3924C26.2266 33.8008 26.2778 33.5051 26.3857 33.2777C26.4919 33.0544 26.5788 32.9323 26.7548 32.7589C26.9343 32.5822 27.2661 32.3986 27.9296 32.0318C27.9785 32.0048 28.0273 31.9773 28.0757 31.9497C28.7106 31.5872 29.0279 31.4059 29.2637 31.3445C29.4953 31.2842 29.6394 31.2719 29.8779 31.2917C30.1206 31.3118 30.3925 31.4103 30.9363 31.6072L32.7945 32.2797C33.6181 32.5778 34.03 32.7268 34.4203 32.698C34.7501 32.6736 35.0673 32.5607 35.3381 32.3708C35.6586 32.1462 35.8833 31.7702 36.3327 31.0183L37.1749 29.6092C37.6492 28.8156 37.8864 28.4187 37.9273 28.0122C37.9618 27.669 37.8987 27.3231 37.7454 27.0141C37.5639 26.6482 37.202 26.3604 36.4784 25.7847L35.1496 24.728C34.6878 24.3608 34.457 24.1772 34.3123 23.9803C34.156 23.7677 34.0892 23.6294 34.0199 23.3746C33.9559 23.1388 33.9559 22.7592 33.9559 22.0002C33.9559 21.2412 33.9559 20.8617 34.0199 20.6259C34.0892 20.3711 34.156 20.2328 34.3123 20.02C34.457 19.8233 34.6878 19.6396 35.1494 19.2725L36.4784 18.2156C37.2022 17.6401 37.5641 17.3523 37.7456 16.9863C37.8989 16.6773 37.9618 16.3314 37.9273 15.9882C37.8864 15.5818 37.6494 15.1849 37.1749 14.3912L36.3327 12.982C35.8833 12.2302 35.6587 11.8543 35.3383 11.6296C35.0673 11.4397 34.7503 11.3267 34.4203 11.3024C34.03 11.2737 33.6182 11.4227 32.7945 11.7208L30.9364 12.3933C30.3925 12.5901 30.1206 12.6885 29.8779 12.7087C29.6394 12.7286 29.4953 12.7162 29.2637 12.6559C29.0279 12.5945 28.7106 12.4132 28.0759 12.0507C28.0273 12.023 27.9785 11.9956 27.9298 11.9686C27.2661 11.6017 26.9343 11.4182 26.7548 11.2415C26.5788 11.0681 26.4919 10.946 26.3857 10.7228C26.2778 10.4954 26.2266 10.1996 26.1247 9.608L25.8385 7.95005Z" fill="#0F1729"/>
</svg>
