<svg width="139" height="54" viewBox="0 0 139 54" fill="none" xmlns="http://www.w3.org/2000/svg">
<path d="M0.600098 8.1C0.600098 5.83333 1.36676 3.93333 2.9001 2.4C4.5001 0.8 6.46676 0 8.8001 0C11.2001 0 13.1668 0.8 14.7001 2.4C16.2334 3.93333 17.0001 5.83333 17.0001 8.1C17.0001 10.2333 16.2334 12.1 14.7001 13.7C13.1668 15.3 11.2001 16.1 8.8001 16.1C6.46676 16.1 4.5001 15.3 2.9001 13.7C1.36676 12.1 0.600098 10.2333 0.600098 8.1Z" fill="black"/>
<path d="M122.124 8.1C122.124 5.83333 122.89 3.93333 124.424 2.4C126.024 0.8 127.99 0 130.324 0C132.724 0 134.69 0.8 136.224 2.4C137.757 3.93333 138.524 5.83333 138.524 8.1C138.524 10.2333 137.757 12.1 136.224 13.7C134.69 15.3 132.724 16.1 130.324 16.1C127.99 16.1 126.024 15.3 124.424 13.7C122.89 12.1 122.124 10.2333 122.124 8.1Z" fill="black"/>
<path d="M120 41.3V53.1C112.467 49.5667 104.533 46.9 96.2001 45.1C87.8668 43.3 79.4668 42.4 71.0001 42.4C62.4668 42.4 54.0334 43.3 45.7001 45.1C37.3668 46.9 29.4668 49.5667 22.0001 53.1V41.3C29.4668 37.3 37.3668 34.3333 45.7001 32.4C54.0334 30.4 62.4668 29.4 71.0001 29.4C79.4668 29.4 87.8668 30.4 96.2001 32.4C104.533 34.3333 112.467 37.3 120 41.3Z" fill="black"/>
</svg>
