<svg width="57" height="64" viewBox="0 0 57 64" fill="none" xmlns="http://www.w3.org/2000/svg">
<path d="M39.9734 41.7071C41.5646 40.5337 43.6546 41.8137 43.6546 43.9471V47.3871C43.6546 50.7737 41.3034 54.4004 38.4771 55.4671L30.9009 58.2937C29.5709 58.8004 27.4096 58.8004 26.1034 58.2937L18.5271 55.4671C15.6771 54.4004 13.3496 50.7737 13.3496 47.3871V43.9204C13.3496 41.8137 15.4396 40.5337 17.0071 41.6804L21.8996 45.2537C23.7759 46.6671 26.1509 47.3604 28.5259 47.3604C30.9009 47.3604 33.2759 46.6671 35.1521 45.2537L39.9734 41.7071Z" fill="#292D32"/>
<path d="M47.4518 17.2228L33.2256 6.74275C30.6606 4.84942 26.4331 4.84942 23.8681 6.74275L9.57063 17.2228C4.98688 20.5561 4.98688 28.1028 9.57063 31.4628L13.3706 34.2361L23.8681 41.9161C26.4331 43.8094 30.6606 43.8094 33.2256 41.9161L43.6518 34.2361L46.9056 31.8361V39.9961C46.9056 41.0894 47.7131 41.9961 48.6868 41.9961C49.6606 41.9961 50.4681 41.0894 50.4681 39.9961V26.8761C51.4181 23.4361 50.4443 19.4361 47.4518 17.2228Z" fill="#292D32"/>
</svg>
