<svg width="226" height="226" viewBox="0 0 226 226" fill="none" xmlns="http://www.w3.org/2000/svg">
<path d="M200.148 123.885L202.015 124.109C201.901 125.062 202.003 125.773 202.323 126.241C202.643 126.709 203.068 126.975 203.597 127.039C204.18 127.109 204.655 126.951 205.024 126.565C205.419 126.183 205.658 125.648 205.74 124.959C205.81 124.377 205.763 123.874 205.599 123.452C205.435 123.029 205.18 122.69 204.835 122.433C204.516 122.18 204.145 122.028 203.721 121.977L204.293 117.212C205.511 117.358 206.547 117.791 207.401 118.511C208.278 119.261 208.914 120.224 209.31 121.399C209.706 122.575 209.815 123.904 209.637 125.387C209.472 126.764 209.101 127.955 208.523 128.96C207.943 129.991 207.219 130.764 206.352 131.277C205.507 131.821 204.596 132.033 203.616 131.916C202.292 131.757 201.283 130.991 200.588 129.618C199.917 128.276 199.77 126.364 200.148 123.885ZM190.583 123.019C190.879 120.557 191.708 118.682 193.071 117.395C194.435 116.109 196.108 115.477 198.093 115.5L197.502 120.425C196.659 120.512 195.954 120.79 195.388 121.259C194.844 121.758 194.515 122.484 194.401 123.437C194.321 124.099 194.346 124.679 194.474 125.178C194.602 125.677 194.822 126.079 195.135 126.385C195.474 126.695 195.881 126.878 196.358 126.935C196.861 126.996 197.3 126.914 197.676 126.691C198.079 126.47 198.405 126.107 198.653 125.599C198.899 125.118 199.067 124.507 199.156 123.766L201.34 124.028C201.108 126.632 200.468 128.61 199.419 129.962C198.367 131.339 197.021 131.93 195.379 131.733C194.188 131.59 193.198 131.108 192.41 130.289C191.645 129.498 191.098 128.466 190.768 127.191C190.464 125.919 190.402 124.528 190.583 123.019Z" fill="white"/>
<path d="M192.961 139.419C192.489 139.236 192.043 139.206 191.623 139.329C191.228 139.462 190.862 139.706 190.524 140.061C190.201 140.45 189.938 140.906 189.736 141.428C189.437 142.199 189.286 142.956 189.284 143.698C189.281 144.441 189.494 145.11 189.921 145.705C190.348 146.3 191.034 146.78 191.979 147.147L189.733 146.962C188.639 146.538 187.806 145.885 187.232 145.005C186.683 144.134 186.386 143.132 186.34 141.998C186.308 140.899 186.524 139.753 186.988 138.559C187.441 137.391 188.045 136.424 188.8 135.659C189.555 134.893 190.423 134.387 191.406 134.139C192.405 133.925 193.475 134.041 194.619 134.485C195.787 134.938 196.666 135.622 197.255 136.537C197.859 137.487 198.172 138.595 198.195 139.863C198.209 141.155 197.926 142.547 197.347 144.039C196.99 144.959 196.545 145.773 196.013 146.482C195.48 147.19 194.959 147.76 194.448 148.191C193.937 148.623 193.502 148.897 193.142 149.014L190.792 148.103C191.585 147.609 192.25 147.038 192.788 146.389C193.326 145.739 193.793 144.905 194.188 143.886C194.478 143.14 194.612 142.463 194.591 141.854C194.57 141.245 194.426 140.731 194.159 140.313C193.883 139.92 193.483 139.622 192.961 139.419ZM200.714 140.669L204.713 140.204C204.848 141.258 204.881 142.5 204.811 143.932C204.767 145.374 204.445 146.865 203.847 148.407C203.268 149.898 202.55 151.121 201.693 152.076C200.827 153.056 199.858 153.709 198.787 154.037C197.74 154.375 196.633 154.317 195.465 153.863L183.308 149.145L185.117 144.484L196.491 148.898C197.261 149.197 197.974 149.131 198.628 148.698C199.307 148.275 199.83 147.591 200.196 146.647C200.515 145.826 200.714 145.017 200.795 144.219C200.892 143.455 200.921 142.752 200.885 142.108C200.839 141.49 200.782 141.01 200.714 140.669Z" fill="white"/>
<path d="M196.678 162.744L193.766 166.808L178.808 156.094L181.719 152.029L196.678 162.744ZM189.83 172.304L186.219 177.344L184.653 166.48L170.795 167.28L174.382 162.272L188.263 161.44L189.83 172.304Z" fill="white"/>
<path d="M170.379 174.572C170.052 174.185 169.675 173.945 169.247 173.853C168.837 173.78 168.398 173.819 167.932 173.969C167.462 174.157 167.013 174.432 166.585 174.793C165.954 175.327 165.46 175.919 165.102 176.571C164.745 177.222 164.612 177.911 164.702 178.638C164.793 179.364 165.165 180.114 165.819 180.888L163.936 179.652C163.178 178.756 162.758 177.784 162.676 176.736C162.611 175.709 162.829 174.687 163.33 173.669C163.829 172.689 164.567 171.786 165.544 170.959C166.501 170.15 167.494 169.59 168.523 169.279C169.552 168.968 170.558 168.939 171.539 169.191C172.518 169.481 173.403 170.095 174.195 171.032C175.004 171.989 175.449 173.01 175.528 174.095C175.604 175.218 175.349 176.341 174.763 177.465C174.156 178.607 173.242 179.694 172.02 180.727C171.267 181.364 170.487 181.866 169.68 182.234C168.873 182.601 168.143 182.852 167.488 182.987C166.834 183.121 166.32 183.154 165.947 183.085L164.32 181.16C165.252 181.106 166.11 180.922 166.893 180.609C167.676 180.296 168.485 179.787 169.32 179.081C169.931 178.565 170.373 178.034 170.645 177.489C170.918 176.945 171.037 176.425 171.003 175.93C170.948 175.452 170.74 175 170.379 174.572ZM176.589 179.378L180.323 180.883C179.938 181.873 179.372 182.98 178.626 184.204C177.897 185.448 176.902 186.604 175.639 187.672C174.417 188.705 173.202 189.435 171.993 189.864C170.763 190.31 169.6 190.42 168.502 190.196C167.422 189.992 166.477 189.411 165.668 188.454L157.249 178.495L161.068 175.268L168.944 184.585C169.477 185.216 170.135 185.498 170.916 185.431C171.715 185.384 172.501 185.034 173.275 184.38C173.947 183.812 174.51 183.197 174.963 182.534C175.412 181.91 175.775 181.306 176.051 180.724C176.306 180.159 176.486 179.71 176.589 179.378Z" fill="white"/>
<path d="M150.92 192.201L151.741 193.892C150.878 194.311 150.336 194.782 150.115 195.304C149.895 195.826 149.901 196.327 150.134 196.807C150.39 197.335 150.78 197.649 151.304 197.751C151.839 197.876 152.419 197.787 153.042 197.484C153.57 197.228 153.967 196.916 154.234 196.55C154.5 196.183 154.648 195.785 154.677 195.356C154.717 194.951 154.644 194.557 154.457 194.173L158.775 192.075C159.311 193.179 159.507 194.284 159.363 195.392C159.207 196.535 158.742 197.591 157.968 198.56C157.193 199.529 156.134 200.34 154.791 200.993C153.544 201.599 152.342 201.931 151.184 201.989C150.003 202.059 148.961 201.869 148.06 201.417C147.146 201.001 146.474 200.349 146.043 199.462C145.46 198.263 145.558 197 146.336 195.673C147.102 194.381 148.63 193.224 150.92 192.201ZM146.473 183.688C148.703 182.604 150.728 182.287 152.548 182.738C154.368 183.188 155.805 184.253 156.859 185.935L152.398 188.103C151.868 187.441 151.253 186.998 150.552 186.776C149.839 186.589 149.05 186.705 148.187 187.125C147.587 187.416 147.112 187.75 146.762 188.128C146.412 188.506 146.193 188.909 146.104 189.337C146.028 189.789 146.094 190.231 146.304 190.663C146.525 191.119 146.832 191.444 147.223 191.64C147.626 191.859 148.108 191.936 148.669 191.871C149.207 191.817 149.811 191.627 150.483 191.301L151.444 193.28C149.129 194.494 147.119 195.026 145.415 194.875C143.687 194.736 142.462 193.923 141.74 192.436C141.215 191.357 141.085 190.264 141.348 189.158C141.598 188.087 142.17 187.068 143.064 186.1C143.969 185.156 145.105 184.352 146.473 183.688Z" fill="white"/>
<path d="M134.089 194.517C133.986 194.021 133.769 193.63 133.438 193.344C133.112 193.085 132.708 192.91 132.227 192.818C131.724 192.759 131.199 192.786 130.65 192.899C129.841 193.066 129.124 193.351 128.499 193.752C127.873 194.154 127.427 194.695 127.16 195.377C126.892 196.058 126.861 196.895 127.066 197.888L126.002 195.902C125.764 194.753 125.86 193.698 126.288 192.739C126.721 191.805 127.401 191.011 128.328 190.356C129.234 189.734 130.314 189.293 131.567 189.034C132.795 188.78 133.935 188.762 134.987 188.981C136.04 189.199 136.937 189.653 137.679 190.344C138.4 191.066 138.885 192.028 139.133 193.23C139.386 194.457 139.289 195.566 138.84 196.558C138.371 197.58 137.61 198.446 136.558 199.153C135.48 199.866 134.158 200.384 132.591 200.708C131.624 200.908 130.699 200.976 129.815 200.914C128.931 200.852 128.169 200.723 127.53 200.528C126.89 200.334 126.424 200.117 126.129 199.878L125.619 197.41C126.464 197.808 127.305 198.056 128.142 198.155C128.98 198.255 129.934 198.194 131.004 197.972C131.788 197.811 132.429 197.555 132.929 197.207C133.429 196.859 133.782 196.459 133.989 196.008C134.169 195.562 134.202 195.065 134.089 194.517ZM137.249 201.706L139.81 204.812C138.999 205.497 137.973 206.199 136.733 206.918C135.498 207.664 134.071 208.203 132.452 208.538C130.885 208.862 129.468 208.923 128.201 208.722C126.908 208.526 125.833 208.068 124.976 207.346C124.125 206.651 123.572 205.689 123.318 204.462L120.68 191.692L125.576 190.68L128.045 202.628C128.212 203.437 128.655 203.999 129.374 204.314C130.098 204.654 130.956 204.722 131.948 204.517C132.81 204.339 133.598 204.067 134.312 203.702C135.005 203.368 135.612 203.011 136.133 202.631C136.628 202.257 136.999 201.948 137.249 201.706Z" fill="white"/>
<path d="M117.406 210.095L105.167 209.906L105.235 205.547L117.473 205.736L117.406 210.095ZM113.779 209.239L108.779 209.162L109.051 191.564L114.051 191.641L113.779 209.239Z" fill="white"/>
<path d="M97.692 209.129L92.6729 207.932L96.9436 190.034L101.963 191.232L97.692 209.129ZM96.2779 198.511L95.4516 201.974L89.8878 200.646C88.0462 200.207 86.6112 199.385 85.5827 198.18C84.5222 196.995 84.221 195.442 84.679 193.523C84.9823 192.252 85.5306 191.218 86.3241 190.42C87.1114 189.648 88.0536 189.147 89.1506 188.915C90.2477 188.683 91.4188 188.716 92.6638 189.013L98.2276 190.341L97.2806 194.309L92.456 193.158C91.9113 193.028 91.4388 192.998 91.0386 193.066C90.6321 193.161 90.301 193.343 90.0451 193.611C89.7633 193.873 89.5698 194.224 89.4646 194.665C89.3099 195.313 89.3967 195.869 89.725 196.331C90.0472 196.819 90.6233 197.162 91.4533 197.36L96.2779 198.511Z" fill="white"/>
<path d="M59.2679 182.554L58.1289 184.049C57.3652 183.468 56.7005 183.196 56.1348 183.235C55.5692 183.273 55.1248 183.505 54.8017 183.929C54.4463 184.396 54.3414 184.886 54.487 185.399C54.6164 185.933 54.957 186.41 55.5086 186.83C55.9753 187.186 56.4325 187.4 56.8799 187.472C57.3274 187.545 57.7491 187.497 58.145 187.33C58.5248 187.183 58.8439 186.94 59.1024 186.601L62.9213 189.509C62.1781 190.485 61.2799 191.158 60.2265 191.529C59.1357 191.905 57.9832 191.966 56.769 191.712C55.5549 191.458 54.3537 190.878 53.1656 189.973C52.0624 189.133 51.2238 188.21 50.6497 187.203C50.0545 186.18 49.7553 185.164 49.7519 184.156C49.7112 183.153 49.9898 182.259 50.5875 181.474C51.3953 180.414 52.5668 179.931 54.1021 180.028C55.6001 180.13 57.322 180.972 59.2679 182.554ZM64.8609 174.746C66.834 176.249 68.0299 177.914 68.4486 179.741C68.8673 181.568 68.5638 183.331 67.538 185.03L63.5918 182.025C63.9441 181.254 64.0616 180.506 63.9442 179.78C63.7895 179.059 63.3302 178.407 62.5664 177.826C62.036 177.422 61.5233 177.149 61.0284 177.006C60.5334 176.864 60.0748 176.85 59.6526 176.964C59.2143 177.1 58.8497 177.359 58.5589 177.74C58.252 178.144 58.0996 178.564 58.1017 179.001C58.0877 179.46 58.2363 179.925 58.5476 180.396C58.8376 180.852 59.2796 181.306 59.8737 181.758L58.5409 183.508C56.4132 181.989 55.0325 180.435 54.3988 178.846C53.7438 177.241 53.9171 175.781 54.9187 174.466C55.6457 173.511 56.5622 172.902 57.6681 172.638C58.7367 172.379 59.9044 172.43 61.1711 172.791C62.4217 173.174 63.6516 173.825 64.8609 174.746Z" fill="white"/>
<path d="M49.6241 168.577C50.0204 168.262 50.2711 167.892 50.3761 167.467C50.4602 167.059 50.4341 166.62 50.2976 166.149C50.1237 165.674 49.8622 165.217 49.5133 164.779C48.9983 164.133 48.4204 163.621 47.7799 163.245C47.1393 162.869 46.4545 162.715 45.7256 162.785C44.9966 162.854 44.2358 163.204 43.4432 163.836L44.7339 161.989C45.6517 161.258 46.6354 160.867 47.6849 160.815C48.7137 160.779 49.7293 161.027 50.7319 161.558C51.697 162.085 52.5783 162.849 53.3759 163.85C54.1568 164.83 54.6878 165.839 54.9688 166.877C55.2499 167.915 55.2498 168.92 54.9688 169.894C54.6503 170.864 54.0113 171.731 53.0518 172.495C52.0715 173.276 51.0378 173.69 49.9507 173.738C48.8262 173.782 47.7107 173.494 46.6042 172.875C45.481 172.236 44.421 171.29 43.4241 170.039C42.8093 169.267 42.33 168.473 41.986 167.656C41.642 166.839 41.4124 166.101 41.2972 165.443C41.1819 164.785 41.1643 164.27 41.2442 163.9L43.2152 162.33C43.2424 163.263 43.401 164.125 43.6909 164.917C43.9807 165.709 44.4663 166.532 45.1475 167.388C45.646 168.013 46.1635 168.47 46.7002 168.759C47.2368 169.047 47.7529 169.182 48.2486 169.162C48.7276 169.121 49.1861 168.926 49.6241 168.577ZM44.6389 174.645L43.0258 178.334C42.048 177.92 40.9581 177.322 39.7561 176.541C38.5333 175.776 37.4068 174.747 36.3767 173.454C35.3798 172.202 34.6848 170.966 34.2917 169.745C33.8819 168.503 33.8052 167.337 34.0615 166.246C34.297 165.172 34.9049 164.245 35.8852 163.464L46.0846 155.339L49.2 159.25L39.6576 166.851C39.011 167.366 38.7098 168.016 38.7539 168.799C38.7773 169.598 39.1046 170.394 39.736 171.187C40.2843 171.875 40.8828 172.455 41.5315 172.927C42.1428 173.395 42.7354 173.775 43.3095 174.068C43.867 174.34 44.3102 174.532 44.6389 174.645Z" fill="white"/>
<path d="M27.6539 160.138L25.6036 155.578L42.3854 148.033L44.4358 152.593L27.6539 160.138ZM22.8316 149.412L20.2892 143.758L30.4685 147.865L36.743 135.483L39.269 141.101L33.0109 153.52L22.8316 149.412Z" fill="white"/>
<path d="M30.6562 131.424C31.1556 131.338 31.5537 131.135 31.8504 130.814C32.1209 130.497 32.31 130.099 32.4176 129.621C32.4944 129.121 32.4856 128.595 32.3912 128.043C32.2519 127.228 31.9924 126.501 31.6127 125.863C31.233 125.225 30.7071 124.76 30.0351 124.469C29.3632 124.178 28.5278 124.118 27.5289 124.289L29.5502 123.294C30.7067 123.096 31.7572 123.228 32.7017 123.688C33.6199 124.154 34.3901 124.861 35.0122 125.809C35.6036 126.736 36.0071 127.831 36.2229 129.092C36.4341 130.328 36.4126 131.468 36.1583 132.512C35.904 133.556 35.4189 134.438 34.7029 135.155C33.9562 135.851 32.9783 136.302 31.7691 136.509C30.5337 136.72 29.4284 136.585 28.4531 136.102C27.4471 135.598 26.6086 134.808 25.9377 133.732C25.2623 132.63 24.7898 131.291 24.5201 129.713C24.3539 128.741 24.3171 127.814 24.4098 126.932C24.5026 126.051 24.6572 125.294 24.8738 124.662C25.0903 124.029 25.3229 123.57 25.5716 123.284L28.0556 122.86C27.6294 123.69 27.3524 124.522 27.2243 125.355C27.0963 126.189 27.1244 127.144 27.3087 128.222C27.4435 129.011 27.6764 129.661 28.0074 130.172C28.3383 130.684 28.7256 131.05 29.1694 131.272C29.6086 131.468 30.1042 131.518 30.6562 131.424ZM23.3624 134.335L20.1702 136.788C19.5135 135.953 18.8471 134.904 18.171 133.64C17.4687 132.38 16.9782 130.935 16.6996 129.306C16.4299 127.729 16.4174 126.31 16.662 125.051C16.9021 123.766 17.3974 122.707 18.148 121.875C18.8722 121.048 19.8521 120.529 21.0875 120.318L33.941 118.12L34.7836 123.048L22.7582 125.104C21.9433 125.244 21.3664 125.667 21.0274 126.374C20.6622 127.086 20.5649 127.941 20.7357 128.94C20.884 129.808 21.1285 130.604 21.4691 131.331C21.7789 132.035 22.1147 132.654 22.4764 133.188C22.8337 133.695 23.129 134.077 23.3624 134.335Z" fill="white"/>
<path d="M25.2963 105.704L23.4219 105.559C23.4959 104.602 23.3632 103.896 23.0239 103.442C22.6846 102.988 22.249 102.74 21.7173 102.699C21.1324 102.654 20.6639 102.831 20.312 103.232C19.9335 103.631 19.7175 104.176 19.6641 104.867C19.6188 105.452 19.6872 105.952 19.869 106.367C20.0509 106.783 20.3197 107.111 20.6755 107.352C21.0047 107.592 21.382 107.728 21.8074 107.761L21.4375 112.547C20.2145 112.452 19.1613 112.063 18.278 111.38C17.3702 110.667 16.6936 109.733 16.2481 108.575C15.8027 107.417 15.6375 106.094 15.7526 104.605C15.8595 103.222 16.18 102.017 16.7142 100.988C17.2505 99.933 17.9411 99.1305 18.7859 98.5806C19.6063 98.0021 20.5083 97.7509 21.4921 97.8269C22.8214 97.9297 23.8622 98.6521 24.6143 99.994C25.342 101.307 25.5693 103.211 25.2963 105.704ZM34.8894 106.164C34.6982 108.637 33.949 110.545 32.6416 111.888C31.3341 113.231 29.6885 113.933 27.7046 113.994L28.0868 109.049C28.9254 108.926 29.6179 108.619 30.1641 108.126C30.6859 107.605 30.9837 106.865 31.0577 105.908C31.1091 105.244 31.0602 104.665 30.9111 104.172C30.762 103.679 30.5249 103.286 30.1998 102.993C29.8481 102.699 29.433 102.533 28.9544 102.496C28.4493 102.457 28.0136 102.557 27.6474 102.796C27.2546 103.033 26.9446 103.41 26.7174 103.928C26.4923 104.419 26.3509 105.036 26.2934 105.781L24.0999 105.611C24.2216 102.999 24.7776 100.996 25.768 99.6018C26.7605 98.1807 28.0809 97.5339 29.7293 97.6613C30.9258 97.7538 31.9349 98.1929 32.7568 98.9785C33.5542 99.7356 34.1449 100.744 34.5289 102.004C34.8864 103.262 35.0065 104.649 34.8894 106.164Z" fill="white"/>
<path d="M31.8248 89.7776C32.3044 89.9412 32.7512 89.9528 33.1654 89.8124C33.5544 89.6634 33.9105 89.4045 34.2335 89.0358C34.54 88.6332 34.7837 88.1669 34.9645 87.6369C35.2316 86.8546 35.3508 86.0923 35.3224 85.3499C35.294 84.6076 35.0541 83.9482 34.6029 83.3715C34.1516 82.7948 33.4465 82.3428 32.4875 82.0155L34.7384 82.1075C35.8488 82.4865 36.7088 83.104 37.3183 83.9601C37.9026 84.8076 38.2412 85.7967 38.3344 86.9273C38.4109 88.0242 38.2424 89.1783 37.829 90.3897C37.4241 91.5758 36.8605 92.5669 36.138 93.3629C35.4155 94.1588 34.5683 94.7009 33.5965 94.9891C32.608 95.2435 31.5333 95.1726 30.3724 94.7764C29.1863 94.3715 28.2801 93.7242 27.654 92.8342C27.0113 91.9105 26.6522 90.8158 26.577 89.5503C26.5103 88.2596 26.7353 86.8571 27.2521 85.3429C27.5708 84.4091 27.9815 83.5772 28.4843 82.8471C28.9871 82.117 29.4846 81.5261 29.9769 81.0742C30.4693 80.6223 30.893 80.3302 31.2481 80.1978L33.6331 81.0118C32.8619 81.5375 32.221 82.1359 31.7102 82.8069C31.1994 83.4779 30.7675 84.3308 30.4143 85.3655C30.1559 86.1226 30.0499 86.8049 30.0961 87.4124C30.1424 88.0199 30.3074 88.5271 30.5912 88.9339C30.8837 89.3155 31.2949 89.5967 31.8248 89.7776ZM24.0268 88.8491L20.0504 89.4784C19.8723 88.4315 19.7884 87.1912 19.7986 85.7577C19.7836 84.3156 20.0432 82.8121 20.5772 81.2474C21.094 79.7332 21.7607 78.4814 22.5773 77.4922C23.4026 76.4777 24.3436 75.7845 25.4003 75.4125C26.4319 75.032 27.5407 75.0441 28.7269 75.4489L41.0679 79.6608L39.453 84.3928L27.9069 80.4522C27.1245 80.1852 26.4155 80.2814 25.7797 80.7406C25.1187 81.1913 24.6246 81.8961 24.2973 82.8552C24.013 83.688 23.847 84.5048 23.7991 85.3056C23.7346 86.0725 23.7338 86.7767 23.7967 87.418C23.8682 88.0341 23.9449 88.5112 24.0268 88.8491Z" fill="white"/>
<path d="M26.6822 67.761L33.0621 57.3152L36.783 59.5878L30.4031 70.0335L26.6822 67.761ZM29.2622 65.0715L31.8684 60.8045L46.8885 69.9782L44.2823 74.2453L29.2622 65.0715Z" fill="white"/>
<path d="M37.2869 51.4763L40.8551 47.749L54.1464 60.473L50.5781 64.2004L37.2869 51.4763ZM47.1658 55.6177L44.5943 53.1559L48.5498 49.024C49.8591 47.6564 51.2934 46.833 52.8527 46.5538C54.4113 46.2369 55.9032 46.7607 57.3287 48.1253C58.2726 49.0289 58.8884 50.0246 59.1761 51.1122C59.4446 52.1814 59.4019 53.248 59.0479 54.3119C58.6939 55.3758 58.0743 56.3701 57.1891 57.2947L53.2336 61.4265L50.2864 58.6051L53.7164 55.0222C54.1036 54.6177 54.3685 54.2253 54.5111 53.845C54.6345 53.4462 54.6451 53.0688 54.543 52.7126C54.4594 52.3372 54.2538 51.9928 53.9264 51.6793C53.4448 51.2183 52.9217 51.0128 52.3569 51.0628C51.7729 51.0944 51.1859 51.4184 50.5958 52.0348L47.1658 55.6177Z" fill="white"/>
<path d="M79.375 31.6185L78.6556 29.8815C79.5425 29.5142 80.1116 29.0764 80.363 28.5682C80.6143 28.06 80.6379 27.5596 80.4338 27.0668C80.2094 26.5248 79.8388 26.1876 79.3221 26.0553C78.7953 25.8982 78.2116 25.9524 77.571 26.2177C77.029 26.4422 76.614 26.7295 76.3261 27.0797C76.0382 27.4298 75.8671 27.8182 75.8129 28.2447C75.7484 28.6467 75.7979 29.0447 75.9611 29.4389L71.5265 31.2757C71.0571 30.1424 70.9271 29.0272 71.1366 27.9302C71.3606 26.7984 71.8879 25.7718 72.7185 24.8505C73.5492 23.9292 74.6544 23.1828 76.034 22.6114C77.3152 22.0807 78.5352 21.8208 79.6942 21.8314C80.8778 21.8319 81.9059 22.0843 82.7787 22.5887C83.6659 23.0583 84.2983 23.7489 84.6759 24.6604C85.1861 25.8923 85.0132 27.1473 84.1571 28.4255C83.3155 29.6688 81.7215 30.7332 79.375 31.6185ZM83.3072 40.3807C81.0159 41.3296 78.9755 41.5253 77.1859 40.9677C75.3963 40.41 74.0254 39.2605 73.0732 37.519L77.6557 35.621C78.1445 36.3133 78.7322 36.7915 79.4188 37.0555C80.1199 37.2847 80.9139 37.2156 81.8008 36.8482C82.4168 36.5931 82.9107 36.2875 83.2828 35.9314C83.6548 35.5752 83.8977 35.186 84.0114 34.7637C84.1149 34.3167 84.0748 33.8715 83.8912 33.428C83.6973 32.9599 83.4108 32.6168 83.0318 32.3985C82.6426 32.1556 82.1659 32.05 81.6017 32.0816C81.0622 32.1031 80.4475 32.2566 79.7576 32.5423L78.9158 30.5098C81.2996 29.4359 83.3374 29.0248 85.0292 29.2766C86.7456 29.5182 87.9201 30.4027 88.5528 31.9302C89.012 33.0389 89.0774 34.1375 88.7489 35.226C88.4349 36.2797 87.803 37.263 86.8534 38.1759C85.8936 39.0641 84.7115 39.799 83.3072 40.3807Z" fill="white"/>
<path d="M96.3597 30.2153C96.4317 30.7169 96.6243 31.1203 96.9375 31.4255C97.2469 31.7044 97.6392 31.9041 98.1145 32.0244C98.6123 32.1146 99.1384 32.12 99.6928 32.0404C100.511 31.923 101.244 31.6831 101.893 31.3207C102.541 30.9582 103.02 30.445 103.329 29.7811C103.638 29.1172 103.72 28.2837 103.576 27.2806L104.516 29.3278C104.683 30.4893 104.523 31.5359 104.037 32.4677C103.548 33.3731 102.82 34.124 101.855 34.7204C100.913 35.2867 99.8081 35.6608 98.5411 35.8426C97.3005 36.0206 96.1615 35.9685 95.1243 35.6863C94.087 35.4041 93.2193 34.8955 92.5212 34.1605C91.8456 33.3954 91.4208 32.4057 91.2465 31.1915C91.0685 29.9508 91.2338 28.8495 91.7423 27.8876C92.2734 26.8954 93.0856 26.0784 94.1789 25.4366C95.2986 24.7911 96.6503 24.3546 98.2341 24.1274C99.2107 23.9873 100.138 23.9754 101.017 24.0917C101.896 24.2081 102.648 24.383 103.275 24.6164C103.901 24.8499 104.353 25.0947 104.633 25.351L104.991 27.8454C104.172 27.3972 103.348 27.0979 102.518 26.9475C101.688 26.7972 100.732 26.7997 99.65 26.9549C98.8581 27.0686 98.2021 27.2839 97.6818 27.601C97.1616 27.9181 96.7847 28.2955 96.5512 28.7331C96.344 29.1669 96.2802 29.661 96.3597 30.2153ZM93.6456 22.8461L91.279 19.5892C92.1309 18.9551 93.1977 18.3171 94.4796 17.6752C95.7576 17.0069 97.2149 16.5554 98.8515 16.3206C100.435 16.0933 101.853 16.1188 103.105 16.3971C104.384 16.6716 105.429 17.1952 106.24 17.9678C107.048 18.714 107.541 19.7074 107.719 20.948L109.571 33.8558L104.621 34.566L102.889 22.4897C102.771 21.6714 102.364 21.0833 101.666 20.7255C100.964 20.3413 100.112 20.2211 99.1085 20.365C98.2375 20.49 97.4343 20.713 96.6991 21.034C95.9866 21.3249 95.3588 21.6439 94.816 21.9912C94.2995 22.3347 93.9094 22.6197 93.6456 22.8461Z" fill="white"/>
<path d="M114.966 15.4399L119.937 15.9786L117.955 34.2715L112.984 33.7328L114.966 15.4399ZM126.658 16.7068L132.822 17.3748L124.129 24.0773L131.635 35.7539L125.511 35.0903L117.965 23.4094L126.658 16.7068Z" fill="white"/>
<path d="M138.758 32.636C138.578 33.1097 138.552 33.5559 138.678 33.9746C138.814 34.3684 139.06 34.733 139.418 35.0684C139.81 35.3883 140.268 35.6476 140.791 35.8463C141.564 36.1396 142.322 36.2846 143.065 36.2813C143.808 36.278 144.475 36.0606 145.066 35.6291C145.658 35.1976 146.134 34.5081 146.493 33.5607L146.325 35.8073C145.909 36.9042 145.263 37.7428 144.386 38.323C143.52 38.8783 142.52 39.1833 141.386 39.2382C140.288 39.2775 139.14 39.0701 137.943 38.616C136.771 38.1712 135.8 37.5744 135.029 36.8254C134.258 36.0764 133.745 35.2114 133.49 34.2304C133.269 33.2338 133.376 32.1622 133.811 31.0153C134.256 29.8435 134.934 28.9598 135.844 28.3641C136.789 27.753 137.895 27.4312 139.163 27.3988C140.455 27.3758 141.849 27.6481 143.345 28.2158C144.267 28.5659 145.085 29.0046 145.797 29.5317C146.51 30.0589 147.084 30.5761 147.519 31.0835C147.954 31.5908 148.231 32.0242 148.352 32.3836L147.458 34.7396C146.958 33.9511 146.382 33.2903 145.729 32.7571C145.075 32.224 144.237 31.7634 143.215 31.3755C142.467 31.0916 141.789 30.9625 141.18 30.9882C140.572 31.0139 140.059 31.1617 139.643 31.4316C139.252 31.711 138.957 32.1124 138.758 32.636ZM139.95 24.8738L139.455 20.8783C140.508 20.7358 141.75 20.6939 143.182 20.7526C144.624 20.7864 146.118 21.0966 147.664 21.6832C149.16 22.2509 150.388 22.9596 151.349 23.8092C152.335 24.6683 152.996 25.6322 153.332 26.701C153.678 27.7448 153.628 28.8526 153.183 30.0244L148.556 42.2159L143.882 40.4418L148.211 29.0356C148.504 28.2627 148.432 27.5508 147.994 26.8999C147.566 26.2241 146.878 25.7064 145.931 25.3468C145.108 25.0346 144.298 24.841 143.499 24.7661C142.735 24.6756 142.031 24.651 141.388 24.6922C140.77 24.7428 140.29 24.8033 139.95 24.8738Z" fill="white"/>
<path d="M163.491 40.9891L164.569 39.4488C165.356 39.9992 166.031 40.2438 166.594 40.1826C167.158 40.1214 167.593 39.8723 167.899 39.4353C168.235 38.9547 168.32 38.4609 168.154 37.9541C168.003 37.4255 167.644 36.9624 167.076 36.5648C166.595 36.2285 166.13 36.033 165.68 35.9784C165.23 35.9238 164.81 35.9883 164.421 36.1719C164.048 36.3336 163.739 36.5892 163.494 36.9388L159.561 34.1866C160.265 33.1816 161.135 32.4726 162.173 32.0596C163.248 31.64 164.397 31.5328 165.62 31.7381C166.844 31.9433 168.067 32.474 169.291 33.3303C170.427 34.1253 171.302 35.0144 171.916 35.9974C172.551 36.9957 172.891 37.9984 172.935 39.0055C173.016 40.0061 172.774 40.9105 172.208 41.7189C171.443 42.8113 170.292 43.3401 168.754 43.3053C167.253 43.2639 165.499 42.4919 163.491 40.9891ZM158.216 49.0148C156.184 47.5929 154.923 45.9775 154.431 44.1687C153.939 42.3598 154.172 40.5859 155.128 38.8468L159.192 41.6908C158.871 42.4751 158.784 43.2277 158.93 43.9486C159.114 44.663 159.599 45.2954 160.385 45.8458C160.931 46.2281 161.455 46.4803 161.955 46.6026C162.455 46.7249 162.914 46.7205 163.331 46.5894C163.764 46.4364 164.118 46.1633 164.393 45.77C164.683 45.3549 164.819 44.9289 164.799 44.492C164.795 44.0332 164.627 43.5744 164.298 43.1157C163.989 42.6723 163.53 42.2365 162.918 41.8084L164.179 40.0059C166.366 41.4388 167.808 42.9362 168.505 44.4981C169.224 46.0753 169.11 47.5412 168.162 48.8958C167.474 49.8789 166.582 50.5246 165.488 50.8327C164.431 51.1343 163.262 51.1301 161.982 50.82C160.717 50.4881 159.462 49.8864 158.216 49.0148Z" fill="white"/>
<path d="M173.832 54.6339C173.449 54.9652 173.213 55.345 173.125 55.7735C173.058 56.1845 173.101 56.6225 173.257 57.0876C173.449 57.5553 173.729 58.0011 174.095 58.4248C174.636 59.0502 175.233 59.5381 175.889 59.8883C176.544 60.2385 177.234 60.3644 177.96 60.266C178.685 60.1675 179.431 59.787 180.198 59.1244L178.982 61.021C178.095 61.7883 177.127 62.2188 176.081 62.3128C175.054 62.3893 174.029 62.1823 173.006 61.6919C172.021 61.2042 171.11 60.4761 170.273 59.5077C169.453 58.5594 168.882 57.5725 168.56 56.547C168.238 55.5215 168.197 54.5166 168.439 53.5322C168.719 52.5505 169.322 51.6586 170.251 50.8565C171.199 50.037 172.215 49.5816 173.299 49.4904C174.421 49.402 175.547 49.6447 176.678 50.2185C177.826 50.8126 178.923 51.7149 179.969 52.9254C180.614 53.672 181.125 54.4465 181.501 55.249C181.878 56.0516 182.137 56.7794 182.278 57.4326C182.42 58.0857 182.458 58.5989 182.393 58.9723L180.486 60.6201C180.422 59.689 180.229 58.8336 179.907 58.054C179.586 57.2743 179.068 56.4709 178.353 55.6437C177.83 55.0384 177.294 54.6024 176.747 54.3356C176.199 54.0689 175.678 53.9553 175.183 53.9949C174.706 54.0547 174.256 54.2677 173.832 54.6339ZM178.571 48.3712L180.035 44.621C181.028 44.9959 182.141 45.5496 183.374 46.2821C184.626 46.9972 185.793 47.9802 186.874 49.2311C187.92 50.4417 188.664 51.6491 189.106 52.8535C189.565 54.078 189.688 55.2402 189.476 56.3402C189.284 57.4228 188.713 58.3738 187.765 59.1934L177.899 67.72L174.63 63.937L183.86 55.9596C184.485 55.4191 184.76 54.7585 184.685 53.9778C184.63 53.1798 184.271 52.3974 183.608 51.6307C183.033 50.9649 182.411 50.4092 181.744 49.9636C181.115 49.5207 180.507 49.1645 179.922 48.895C179.354 48.6457 178.904 48.4711 178.571 48.3712Z" fill="white"/>
<path d="M195.302 61.0765L201.135 71.8373L197.302 73.915L191.469 63.1541L195.302 61.0765ZM196.334 64.6578L198.716 69.0536L183.243 77.4406L180.861 73.0448L196.334 64.6578Z" fill="white"/>
<path d="M204.242 78.9071L205.648 83.8717L187.945 88.8861L186.539 83.9214L204.242 78.9071ZM195.667 85.3269L199.092 84.3567L200.651 89.8602C201.167 91.6819 201.151 93.3357 200.601 94.8216C200.085 96.3259 198.878 97.3469 196.979 97.8847C195.722 98.2408 194.551 98.2674 193.468 97.9646C192.41 97.6545 191.512 97.0773 190.774 96.2332C190.036 95.389 189.493 94.3511 189.144 93.1196L187.585 87.6161L191.511 86.5042L192.862 91.2765C193.015 91.8153 193.219 92.2425 193.475 92.5581C193.756 92.8664 194.076 93.0668 194.435 93.1592C194.801 93.2772 195.202 93.2745 195.638 93.1509C196.28 92.9692 196.722 92.6223 196.965 92.11C197.233 91.5905 197.251 90.9202 197.019 90.0992L195.667 85.3269Z" fill="white"/>
</svg>
